<?xml version="1.0" encoding="utf-8"?>
<!-- Generator: Adobe Illustrator 20.1.0, SVG Export Plug-In . SVG Version: 6.00 Build 0)  -->
<svg version="1.1" id="Layer_1" xmlns="http://www.w3.org/2000/svg" xmlns:xlink="http://www.w3.org/1999/xlink" x="0px" y="0px"
	 viewBox="0 0 1171 308" style="enable-background:new 0 0 1171 308;" xml:space="preserve">
<style type="text/css">
	.st0{fill:#FFFFFF;}
</style>
<path class="st0" d="M0,2.8h61c21.8,0,40.5,10.6,40.5,34.6c0,16.9-8.8,30.3-25.9,33.8v0.4c17.3,2.4,22.4,13.9,23.3,29.9
	c0.6,9.1,0.6,27.5,6.2,34H91c-3-5-3-15.1-3.5-20.6c-0.9-18.6-2.8-39.2-26.7-38.3H12.7v58.9H0V2.8L0,2.8z M12.7,65.8h47.4
	c15.5,0,28.7-9.7,28.7-25.8c0-16.4-9.5-26.4-28.7-26.4H12.7V65.8z M217.5,0c41.8,0,62.7,32.7,62.7,69.1s-20.9,69.1-62.7,69.1
	c-42,0-62.9-32.7-62.9-69.1S175.5,0,217.5,0L217.5,0z M217.5,127.5c35.1,0,50-29.4,50-58.4s-14.9-58.4-50-58.4
	c-35.2,0-50.2,29.4-50.2,58.4S182.2,127.5,217.5,127.5L217.5,127.5z M374.4,80.8L321.9,2.8h15.1l43.8,67.3l43.6-67.3h15.1L387,80.8
	v54.6h-12.7V80.8z M513.7,2.8h14.2l52.2,132.7h-13.6l-16.2-41.3h-60.6l-16,41.3H460L513.7,2.8z M493.5,83.4H546l-25.7-68L493.5,83.4
	z M629.5,2.8h12.7v121.9h74.6v10.8h-87.3V2.8L629.5,2.8z M735.5,2.8H841v10.8h-46.4v121.9h-12.7V13.6h-46.4V2.8z M946.6,0
	c41.8,0,62.7,32.7,62.7,69.1s-20.9,69.1-62.7,69.1c-42,0-62.8-32.7-62.8-69.1S904.7,0,946.6,0z M946.6,127.5c35.1,0,50-29.4,50-58.4
	s-14.9-58.4-50-58.4c-35.2,0-50.2,29.4-50.2,58.4S911.4,127.5,946.6,127.5z M1066.2,2.8h14.2l77.6,112.3h0.4V2.8h12.7v132.7h-14.2
	l-77.6-112.3h-0.4v112.2h-12.7V2.8L1066.2,2.8z M286.8,272.9h34.2v4.7h-34.2v29.1h-6.3v-62.9h44.1v4.7h-37.9V272.9L286.8,272.9z
	 M406.9,306.7h-45.1v-62.9h6.3v58.3h38.9V306.7L406.9,306.7z M452.7,283.7l-9,23.1H437l25.8-62.9h8.4l25.1,62.9h-6.8l-9.1-23.1
	H452.7L452.7,283.7z M478.6,278.9l-11.8-30.5l-12.3,30.5H478.6z M549.9,248.5v58.3h-6.3v-58.3h-25.5v-4.7h57.4v4.7H549.9
	L549.9,248.5z M610.6,306.7v-62.9h6.3v62.9H610.6z M708,306.7h-7c-1.7-4-2.9-7.9-3.9-16.1c-0.9-6.7-3.9-11.9-11.4-12.2
	c-1.8-0.1-3.8-0.1-5.5-0.1H666v28.4h-6.3v-62.9h20.5c3.2-0.1,6.3,0.1,9.5,0.4c10.3,1.2,17.2,6.3,17.2,16.3c0,8.3-5.9,13.3-13.1,15
	c6,2.2,8.9,7.9,9.6,14.5C704.3,298.6,705.5,303.2,708,306.7L708,306.7z M680.3,273.6c3,0,4.7,0,7.1-0.2c7.7-0.5,12.7-5,12.7-12.4
	s-4.3-11-11.9-12c-2.6-0.3-5.3-0.4-8-0.4H666v25L680.3,273.6L680.3,273.6z M805.3,275.3c0,19-12,32.7-32.4,32.7
	c-20.3,0-32.3-13.8-32.3-32.7c0-19.1,12-32.7,32.3-32.7C793.3,242.6,805.3,256.1,805.3,275.3L805.3,275.3z M798.3,275.3
	c0-17.7-10.4-28.2-25.4-28.2c-14.9,0-25.3,10.5-25.3,28.2c0,17.6,10.4,28.2,25.3,28.2C788,303.5,798.4,292.9,798.3,275.3
	L798.3,275.3z M886.6,306.7l-36.2-57.4c0.2,7.8,0.3,17.1,0.3,25v32.5h-6.3v-62.9h9.5l36.3,57.4c-0.2-7.8-0.3-17.1-0.3-25v-32.5h6.2
	l0.1,62.9L886.6,306.7L886.6,306.7z"/>
</svg>
