<?xml version="1.0" encoding="utf-8"?>
<!-- Generator: Adobe Illustrator 21.1.0, SVG Export Plug-In . SVG Version: 6.00 Build 0)  -->
<svg version="1.1" id="Layer_1" xmlns="http://www.w3.org/2000/svg" xmlns:xlink="http://www.w3.org/1999/xlink" x="0px" y="0px"
	 viewBox="0 0 1200 286.6" style="enable-background:new 0 0 1200 286.6;" xml:space="preserve">
<style type="text/css">
	.st0{fill:#FFFFFF;}
</style>
<g>
	<g>
		<path class="st0" d="M22.8,24c4.5-0.8,9.7-1.5,15.6-2c5.9-0.5,11.3-0.7,16.2-0.7c5.5,0,10.7,0.6,15.6,1.8c4.9,1.2,9.3,3.2,13,5.9
			c3.8,2.7,6.8,6.3,9,10.7c2.3,4.4,3.4,9.8,3.4,16.1c0,9.8-2.7,17.7-8,23.8c-5.4,6.1-12.1,10.1-20.4,12.1l8.6,6.6l31.1,49.5H89.6
			L55.1,93.9l-17.5-2.7v56.6H22.8V24z M54.9,34.2c-1.5,0-3.2,0-4.8,0c-1.7,0-3.3,0.1-4.8,0.2c-1.5,0.1-3,0.2-4.4,0.4
			c-1.4,0.1-2.5,0.3-3.3,0.5v46.1h13.9c8.2,0,15-2,20.4-6.1c5.4-4,8-10.4,8-18.9c0-6.4-2.2-11.7-6.6-15.9
			C68.9,36.3,62.8,34.2,54.9,34.2z"/>
		<path class="st0" d="M169.6,85.3c0-20.8,4.4-36.8,13.2-47.9c8.8-11.1,21.4-16.7,37.7-16.7c8.8,0,16.4,1.5,22.9,4.6
			c6.4,3.1,11.8,7.5,16,13.1c4.2,5.7,7.3,12.4,9.4,20.4c2,7.9,3,16.8,3,26.5c0,20.8-4.4,36.8-13.3,47.9
			c-8.9,11.1-21.5,16.7-37.9,16.7c-8.7,0-16.2-1.5-22.6-4.6c-6.4-3.1-11.7-7.5-15.9-13.1c-4.2-5.7-7.4-12.4-9.4-20.4
			C170.6,103.9,169.6,95,169.6,85.3z M185.3,85.3c0,6.9,0.7,13.5,2.1,19.6c1.4,6.2,3.5,11.6,6.3,16.3c2.9,4.7,6.5,8.5,11,11.3
			c4.5,2.8,9.7,4.2,15.8,4.2c11.1,0,19.8-4.2,26.1-12.6c6.3-8.4,9.5-21.3,9.5-38.8c0-6.8-0.7-13.3-2.1-19.6
			c-1.4-6.3-3.5-11.7-6.4-16.4c-2.9-4.7-6.6-8.5-11.1-11.3c-4.5-2.8-9.8-4.2-16-4.2c-11,0-19.6,4.2-25.8,12.6
			C188.4,54.8,185.3,67.8,185.3,85.3z"/>
		<path class="st0" d="M370.7,98.1l-41.3-75.4h17.3L376,77.4l3.1,10.9h0.2l3.3-11.3l28.1-54.3h15.7L385.5,98v49.8h-14.8V98.1z"/>
		<path class="st0" d="M543.6,113.1h-45.8l-12.4,34.6h-14.8l47.3-127h6.8l47.5,127h-15.7L543.6,113.1z M502.6,100.3h36.6l-13.9-38
			l-4.4-18.9h-0.2l-4.4,19.3L502.6,100.3z"/>
		<path class="st0" d="M716.2,147.8h-73.9v-125h14.8v111.8h59.1V147.8z"/>
		<path class="st0" d="M847.1,36h-38.9v111.8h-14.8V36h-38.9V22.8h92.7V36z"/>
		<path class="st0" d="M905.3,85.3c0-20.8,4.4-36.8,13.2-47.9c8.8-11.1,21.4-16.7,37.7-16.7c8.8,0,16.4,1.5,22.9,4.6
			c6.4,3.1,11.8,7.5,16,13.1c4.2,5.7,7.3,12.4,9.4,20.4c2,7.9,3,16.8,3,26.5c0,20.8-4.4,36.8-13.3,47.9
			c-8.9,11.1-21.5,16.7-37.9,16.7c-8.7,0-16.2-1.5-22.6-4.6c-6.4-3.1-11.7-7.5-15.9-13.1c-4.2-5.7-7.4-12.4-9.4-20.4
			C906.3,103.9,905.3,95,905.3,85.3z M921.1,85.3c0,6.9,0.7,13.5,2.1,19.6c1.4,6.2,3.5,11.6,6.3,16.3c2.9,4.7,6.5,8.5,11,11.3
			c4.5,2.8,9.7,4.2,15.8,4.2c11.1,0,19.8-4.2,26.1-12.6c6.3-8.4,9.5-21.3,9.5-38.8c0-6.8-0.7-13.3-2.1-19.6
			c-1.4-6.3-3.5-11.7-6.4-16.4c-2.9-4.7-6.6-8.5-11.1-11.3c-4.5-2.8-9.8-4.2-16-4.2c-11,0-19.6,4.2-25.8,12.6
			C924.2,54.8,921.1,67.8,921.1,85.3z"/>
		<path class="st0" d="M1108.7,66l-9.6-18h-0.7l1.8,18v81.8h-13.9v-127h7.9l59.8,83.4l9.3,17.1h0.9l-2-17.1V22.8h13.9v127h-7.9
			L1108.7,66z"/>
	</g>
	<g>
		<path class="st0" d="M320,199.4h32.9v6.4h-25.7v20.6h24v6.4h-24v27H320V199.4z"/>
		<path class="st0" d="M430.5,259.7h-35.7v-60.4h7.2v54h28.5V259.7z"/>
		<path class="st0" d="M491.7,243h-22.1l-6,16.7h-7.2l22.9-61.3h3.3l22.9,61.3h-7.6L491.7,243z M471.9,236.8h17.7l-6.7-18.4
			l-2.1-9.1h-0.1l-2.1,9.3L471.9,236.8z"/>
		<path class="st0" d="M576.9,205.8h-18.8v54H551v-54h-18.8v-6.4h44.8V205.8z"/>
		<path class="st0" d="M617.6,199.4h7.2v60.4h-7.2V199.4z"/>
		<path class="st0" d="M671.3,200c2.2-0.4,4.7-0.7,7.5-0.9c2.8-0.2,5.4-0.3,7.8-0.3c2.6,0,5.2,0.3,7.5,0.9c2.4,0.6,4.5,1.5,6.3,2.8
			c1.8,1.3,3.3,3,4.4,5.2c1.1,2.1,1.6,4.7,1.6,7.8c0,4.7-1.3,8.5-3.9,11.5c-2.6,2.9-5.9,4.9-9.8,5.9l4.1,3.2l15,23.9h-8.4l-16.6-26
			l-8.5-1.3v27.3h-7.2V200z M686.8,204.9c-0.7,0-1.5,0-2.3,0c-0.8,0-1.6,0-2.3,0.1c-0.7,0.1-1.5,0.1-2.1,0.2
			c-0.7,0.1-1.2,0.1-1.6,0.3v22.3h6.7c4,0,7.2-1,9.8-2.9c2.6-2,3.9-5,3.9-9.1c0-3.1-1.1-5.7-3.2-7.7
			C693.6,205.9,690.6,204.9,686.8,204.9z"/>
		<path class="st0" d="M746.5,229.6c0-10.1,2.1-17.8,6.4-23.2c4.3-5.4,10.3-8.1,18.2-8.1c4.3,0,7.9,0.7,11,2.2
			c3.1,1.5,5.7,3.6,7.7,6.3c2,2.7,3.5,6,4.5,9.8c1,3.8,1.5,8.1,1.5,12.8c0,10.1-2.1,17.8-6.4,23.2c-4.3,5.4-10.4,8.1-18.3,8.1
			c-4.2,0-7.8-0.7-10.9-2.2c-3.1-1.5-5.6-3.6-7.7-6.3c-2-2.7-3.6-6-4.5-9.8C747,238.5,746.5,234.3,746.5,229.6z M754.1,229.6
			c0,3.3,0.3,6.5,1,9.5c0.7,3,1.7,5.6,3.1,7.9c1.4,2.3,3.1,4.1,5.3,5.4c2.2,1.4,4.7,2,7.6,2c5.3,0,9.5-2,12.6-6.1
			c3-4.1,4.6-10.3,4.6-18.8c0-3.3-0.3-6.4-1-9.4c-0.7-3-1.7-5.7-3.1-7.9c-1.4-2.3-3.2-4.1-5.3-5.4c-2.2-1.3-4.7-2-7.7-2
			c-5.3,0-9.4,2-12.5,6.1C755.6,214.8,754.1,221.1,754.1,229.6z"/>
		<path class="st0" d="M849,220.2l-4.7-8.7H844l0.9,8.7v39.5h-6.7v-61.3h3.8l28.9,40.3l4.5,8.3h0.4l-0.9-8.3v-39.3h6.7v61.3h-3.8
			L849,220.2z"/>
	</g>
</g>
</svg>
